<svg width="224" height="224" viewBox="0 0 224 224" fill="none" xmlns="http://www.w3.org/2000/svg">
<circle opacity="0.16" cx="112" cy="112" r="84" fill="#7E869E" fill-opacity="0.25" stroke="white" stroke-width="3"/>
<circle cx="112.001" cy="168" r="4.76667" fill="white" stroke="white" stroke-width="0.2"/>
<path opacity="0.5" d="M112 149.333V141.337C112 137.719 112 135.91 112.444 134.254C112.962 132.327 113.915 130.546 115.231 129.046C116.363 127.758 117.868 126.755 120.878 124.748L126.464 121.024C127.503 120.332 128.022 119.985 128.498 119.638C135.391 114.611 139.616 106.716 139.975 98.1929C140 97.6041 140 96.9799 140 95.7314V93.3333C140 77.8693 127.464 65.3333 112 65.3333V65.3333C96.536 65.3333 84 77.8693 84 93.3333V93.3333" stroke="white" stroke-width="3"/>
</svg>
