<svg width="60" height="75" viewBox="0 0 60 75" fill="none" xmlns="http://www.w3.org/2000/svg">
<path d="M58.7912 9.61037L31.2326 0.171177C30.9001 0.0570589 30.454 0 30.0079 0C29.5619 0 29.1158 0.0570589 28.7833 0.171177L1.22465 9.61037C0.551498 9.8386 0 10.6211 0 11.3384V50.6603C0 51.3776 0.462285 52.3231 1.02189 52.7714L28.9779 74.6658C29.2618 74.8859 29.6268 75 29.9998 75C30.3729 75 30.746 74.8859 31.0217 74.6658L58.9778 52.7714C59.5374 52.3313 59.9997 51.3857 59.9997 50.6603V11.3384C60.0159 10.6211 59.4644 9.84676 58.7912 9.61037ZM41.0622 22.8888L33.9495 36.0205H37.6559C38.102 36.0205 38.4669 36.3874 38.4669 36.8357V38.5719C38.4669 39.0202 38.102 39.387 37.6559 39.387H32.514V41.808H37.6559C38.102 41.808 38.4669 42.1748 38.4669 42.6231V44.3593C38.4669 44.8076 38.102 45.1744 37.6559 45.1744H32.514V49.3968C32.514 49.8451 32.149 50.2119 31.703 50.2119H28.3534C27.9074 50.2119 27.5424 49.8451 27.5424 49.3968V45.1744H22.4249C21.9788 45.1744 21.6138 44.8076 21.6138 44.3593V42.6231C21.6138 42.1748 21.9788 41.808 22.4249 41.808H27.5424V39.387H22.4249C21.9788 39.387 21.6138 39.0202 21.6138 38.5719V36.8357C21.6138 36.3874 21.9788 36.0205 22.4249 36.0205H26.0907L18.9537 22.8888C18.7428 22.4976 18.8807 22.0003 19.2781 21.7802C19.3997 21.715 19.5295 21.6824 19.6674 21.6824H23.3981C23.7063 21.6824 23.982 21.8536 24.1199 22.1307L30.0323 33.8931L35.969 22.1307C36.0364 21.9963 36.1395 21.8833 36.2669 21.8041C36.3943 21.725 36.541 21.6829 36.6908 21.6824H40.3404C40.7865 21.6824 41.1514 22.0492 41.1514 22.4976C41.1595 22.6361 41.1271 22.7665 41.0622 22.8888Z" fill="#FFB800"/>
</svg>
