<svg width="51" height="65" viewBox="0 0 51 65" fill="none" xmlns="http://www.w3.org/2000/svg">
<path d="M40.7435 29.8119C42.185 27.6822 43.0193 25.2002 43.1568 22.6322C43.2943 20.0642 42.7299 17.5073 41.5241 15.2358C40.3183 12.9644 38.5166 11.0642 36.3125 9.73927C34.1085 8.41435 31.5852 7.71469 29.0135 7.71541V4.17375C29.0135 3.23444 28.6404 2.3336 27.9762 1.66941C27.312 1.00522 26.4111 0.63208 25.4718 0.63208C24.5325 0.63208 23.6317 1.00522 22.9675 1.66941C22.3033 2.3336 21.9302 3.23444 21.9302 4.17375V7.71541H14.8468V4.17375C14.8468 3.23444 14.4737 2.3336 13.8095 1.66941C13.1453 1.00522 12.2445 0.63208 11.3052 0.63208C10.3659 0.63208 9.46503 1.00522 8.80084 1.66941C8.13665 2.3336 7.76351 3.23444 7.76351 4.17375V7.71541H4.22184C3.28253 7.71541 2.3817 8.08855 1.7175 8.75274C1.05331 9.41693 0.680176 10.3178 0.680176 11.2571C0.680176 12.1964 1.05331 13.0972 1.7175 13.7614C2.3817 14.4256 3.28253 14.7987 4.22184 14.7987H7.76351V50.2154H4.22184C3.28253 50.2154 2.3817 50.5886 1.7175 51.2527C1.05331 51.9169 0.680176 52.8178 0.680176 53.7571C0.680176 54.6964 1.05331 55.5972 1.7175 56.2614C2.3817 56.9256 3.28253 57.2987 4.22184 57.2987H7.76351V60.8404C7.76351 61.7797 8.13665 62.6806 8.80084 63.3447C9.46503 64.0089 10.3659 64.3821 11.3052 64.3821C12.2445 64.3821 13.1453 64.0089 13.8095 63.3447C14.4737 62.6806 14.8468 61.7797 14.8468 60.8404V57.2987H21.9302V60.8404C21.9302 61.7797 22.3033 62.6806 22.9675 63.3447C23.6317 64.0089 24.5325 64.3821 25.4718 64.3821C26.4111 64.3821 27.312 64.0089 27.9762 63.3447C28.6404 62.6806 29.0135 61.7797 29.0135 60.8404V57.2987H36.0968C39.4395 57.3033 42.6756 56.1227 45.2302 53.9668C47.7847 51.8109 49.4923 48.8192 50.0495 45.5233C50.6068 42.2274 49.9776 38.8406 48.2738 35.9647C46.57 33.0888 43.9019 30.91 40.7435 29.8154V29.8119ZM14.8468 14.7987H29.0135C30.8921 14.7987 32.6938 15.545 34.0222 16.8734C35.3506 18.2018 36.0968 20.0035 36.0968 21.8821C36.0968 23.7607 35.3506 25.5624 34.0222 26.8908C32.6938 28.2191 30.8921 28.9654 29.0135 28.9654H14.8468V14.7987ZM36.0968 50.2154H14.8468V36.0487H36.0968C37.9755 36.0487 39.7771 36.795 41.1055 38.1234C42.4339 39.4518 43.1802 41.2535 43.1802 43.1321C43.1802 45.0107 42.4339 46.8124 41.1055 48.1408C39.7771 49.4691 37.9755 50.2154 36.0968 50.2154Z" fill="#FFB800"/>
</svg>
