<svg width="84" height="57" viewBox="0 0 84 57" fill="none" xmlns="http://www.w3.org/2000/svg">
<path d="M74.6667 0.333374C79.8146 0.333374 84 4.5115 84 9.66671V47C84 52.148 79.8146 56.3334 74.6667 56.3334H9.33333C4.17812 56.3334 0 52.148 0 47V9.66671C0 4.5115 4.17812 0.333374 9.33333 0.333374H74.6667ZM39.6667 19C38.3833 19 37.3333 20.05 37.3333 21.3334C37.3333 22.6167 38.3833 23.6667 39.6667 23.6667H72.3333C73.6167 23.6667 74.6667 22.6167 74.6667 21.3334C74.6667 20.05 73.6167 19 72.3333 19H39.6667ZM39.6667 37.6667H72.3333C73.6167 37.6667 74.6667 36.6167 74.6667 35.3334C74.6667 34.05 73.6167 33 72.3333 33H39.6667C38.3833 33 37.3333 34.05 37.3333 35.3334C37.3333 36.6167 38.3833 37.6667 39.6667 37.6667ZM23.9312 14.3334C23.9312 12.7146 22.6187 11.4021 20.8687 11.4021C19.3813 11.4021 18.0688 12.7146 18.0688 14.3334V15.2084C17.2521 15.3834 16.3479 15.6313 15.75 15.9521C13.5712 16.9438 11.6769 18.7813 11.216 21.45C10.9579 22.9375 11.095 24.3813 11.7133 25.6792C12.3185 26.9625 13.2708 27.8667 14.2377 28.523C15.925 29.675 18.1562 30.3459 19.8625 30.8563L20.1833 30.9438C22.225 31.5709 23.5958 32.023 24.4562 32.65C24.8208 32.9125 24.9521 33.1167 24.9958 33.248C25.0542 33.3646 25.1417 33.6271 25.0396 34.2105C24.9521 34.7209 24.675 35.1584 23.8729 35.4938C22.9833 35.873 21.5396 36.0625 19.6729 35.7709C18.7979 35.625 17.2375 35.1 15.8521 34.6334C15.5312 34.5167 15.2104 34.4146 14.9187 34.3125C13.3933 33.8021 11.741 34.6334 11.2321 36.1646C10.7231 37.6959 11.55 39.3438 13.0783 39.723C13.2548 39.9125 13.4735 39.9855 13.7244 40.073C14.7437 40.4667 16.6833 41.0792 18.0688 41.4V42.3334C18.0688 43.9521 19.3813 45.2646 20.8687 45.2646C22.6187 45.2646 23.9312 43.9521 23.9312 42.3334V41.5313C24.7042 41.3855 25.4625 41.0355 26.1625 40.8605C28.4667 39.8834 30.3042 37.9875 30.7854 35.2167C31.0479 33.7 30.9312 32.2417 30.3479 30.9146C29.7792 29.6021 28.8604 28.6396 27.8833 27.9396C26.1187 26.6417 23.7563 25.9417 21.9917 25.4021L21.7437 25.373C19.8042 24.7459 18.4042 24.3084 17.5146 23.6959C17.1354 23.4334 17.0187 23.2584 16.9896 23.1855C16.9604 23.1271 16.8729 22.9521 16.9604 22.4563C17.0187 22.1646 17.2375 21.6834 18.1562 21.275C18.9729 20.8521 20.5479 20.6188 22.3271 20.7646C22.9688 20.998 24.9375 21.3771 25.5062 21.523C27.0521 21.9459 28.6562 21.0125 29.0646 19.4521C29.4875 17.9063 28.5542 16.3021 26.9937 15.8938C26.3521 15.7188 24.8937 15.4271 23.9312 15.2521V14.3334Z" fill="#FFB800"/>
</svg>
